<svg xmlns="http://www.w3.org/2000/svg" width="32" height="32" viewBox="0 0 40 40"><path fill="#4f46e5" stroke="#4f46e5" stroke-width="2" stroke-linejoin="round" fill-rule="evenodd" clip-rule="evenodd" d="M8.125 23.8179V9.67054c.62067-.18099 1.28985-.35565 2.002-.54152v-.00001c.3642-.09504.7396-.19301 1.1254-.29626 1.4625-.39131 3.0324-.84866 4.4687-1.47955 1.4334-.62958 2.8155-1.46629 3.844-2.66311.1542-.17947.2994-.3658.4349-.55915.1355.19335.2807.37968.4349.55915 1.0285 1.19682 2.4106 2.03353 3.844 2.66311 1.4363.63089 3.0062 1.08824 4.4687 1.47955.3857.10323.761.20118 1.1251.2962l.0003.00006c.7121.18588 1.3813.36053 2.002.54153V23.8179c0 3.7199-2.0648 7.1323-5.3599 8.8583L20 36.0889l-6.5151-3.4127c-3.2951-1.726-5.3599-5.1384-5.3599-8.8583Zm9.5441-20.75724C18.3344 2.28639 18.75 1.31808 18.75 0h2.5c0 1.31808.4156 2.28639 1.0809 3.06066.6904.80329 1.6991 1.4527 2.9534 2.00361 1.2512.54961 2.6657.96712 4.1095 1.35344.3439.09204.6927.18304 1.0415.27403l.0002.00005c1.0762.28078 2.1521.56146 3.0848.87236l.8547.2849V23.8179c0 4.6498-2.581 8.9154-6.6999 11.0729L20.58 38.6073l-.58.3038-.58-.3038-7.0951-3.7165C8.20596 32.7333 5.625 28.4677 5.625 23.8179V7.84905l.85472-.2849c.93267-.3109 2.00855-.59158 3.08478-.87236l.00019-.00005c.34877-.09099.69761-.18199 1.04151-.27403 1.4438-.38632 2.8583-.80383 4.1095-1.35344 1.2543-.55091 2.263-1.20032 2.9534-2.00361Zm9.7773 14.07324.8839-.8839-1.7678-1.7678-.8839.8839-9.1161 9.1161-2.2411-2.2411-.8839-.8839-1.7678 1.7678.8839.8839 3.125 3.125c.4882.4881 1.2796.4881 1.7678 0l10-10Z"/></svg>